<mxfile host="Electron" modified="2024-01-19T19:09:36.826Z" agent="Mozilla/5.0 (Macintosh; Intel Mac OS X 10_15_7) AppleWebKit/537.36 (KHTML, like Gecko) draw.io/21.6.8 Chrome/114.0.5735.289 Electron/25.5.0 Safari/537.36" etag="6YZaXzkV0HpPHEFOgzkJ" version="21.6.8" type="device">
  <diagram name="Page-1" id="F0ma_k3f7oRxoX8WzgS7">
    <mxGraphModel dx="1793" dy="1104" grid="1" gridSize="10" guides="1" tooltips="1" connect="1" arrows="1" fold="1" page="1" pageScale="1" pageWidth="4681" pageHeight="3300" math="0" shadow="0">
      <root>
        <mxCell id="0" />
        <mxCell id="1" parent="0" />
        <mxCell id="vr4WAeOj3KnGOKqHxN8c-2" value="" style="rounded=1;whiteSpace=wrap;html=1;sketch=1;curveFitting=1;jiggle=2;glass=0;shadow=0;" vertex="1" parent="1">
          <mxGeometry x="230" y="420" width="1370" height="940" as="geometry" />
        </mxCell>
        <mxCell id="vr4WAeOj3KnGOKqHxN8c-97" style="edgeStyle=orthogonalEdgeStyle;rounded=0;orthogonalLoop=1;jettySize=auto;html=1;entryX=1;entryY=0.5;entryDx=0;entryDy=0;entryPerimeter=0;" edge="1" parent="1" source="vr4WAeOj3KnGOKqHxN8c-3" target="vr4WAeOj3KnGOKqHxN8c-25">
          <mxGeometry relative="1" as="geometry" />
        </mxCell>
        <mxCell id="vr4WAeOj3KnGOKqHxN8c-3" value="" style="rounded=1;whiteSpace=wrap;html=1;sketch=1;curveFitting=1;jiggle=2;" vertex="1" parent="1">
          <mxGeometry x="714.48" y="770" width="340" height="210" as="geometry" />
        </mxCell>
        <mxCell id="vr4WAeOj3KnGOKqHxN8c-11" value="" style="sketch=0;points=[[0,0,0],[0.25,0,0],[0.5,0,0],[0.75,0,0],[1,0,0],[0,1,0],[0.25,1,0],[0.5,1,0],[0.75,1,0],[1,1,0],[0,0.25,0],[0,0.5,0],[0,0.75,0],[1,0.25,0],[1,0.5,0],[1,0.75,0]];outlineConnect=0;fontColor=#232F3E;gradientColor=#4D72F3;gradientDirection=north;fillColor=#3334B9;strokeColor=#ffffff;dashed=0;verticalLabelPosition=bottom;verticalAlign=top;align=center;html=1;fontSize=12;fontStyle=0;aspect=fixed;shape=mxgraph.aws4.resourceIcon;resIcon=mxgraph.aws4.rds;" vertex="1" parent="1">
          <mxGeometry x="1340" y="800.5" width="60" height="60" as="geometry" />
        </mxCell>
        <mxCell id="vr4WAeOj3KnGOKqHxN8c-12" value="" style="points=[[0,0,0],[0.25,0,0],[0.5,0,0],[0.75,0,0],[1,0,0],[0,1,0],[0.25,1,0],[0.5,1,0],[0.75,1,0],[1,1,0],[0,0.25,0],[0,0.5,0],[0,0.75,0],[1,0.25,0],[1,0.5,0],[1,0.75,0]];outlineConnect=0;fontColor=#232F3E;gradientColor=#4D72F3;gradientDirection=north;fillColor=#3334B9;strokeColor=#ffffff;dashed=0;verticalLabelPosition=bottom;verticalAlign=top;align=center;html=1;fontSize=12;fontStyle=0;aspect=fixed;shape=mxgraph.aws4.resourceIcon;resIcon=mxgraph.aws4.dynamodb;shadow=0;" vertex="1" parent="1">
          <mxGeometry x="1340" y="980" width="60" height="60" as="geometry" />
        </mxCell>
        <mxCell id="vr4WAeOj3KnGOKqHxN8c-13" value="" style="sketch=0;points=[[0,0,0],[0.25,0,0],[0.5,0,0],[0.75,0,0],[1,0,0],[0,1,0],[0.25,1,0],[0.5,1,0],[0.75,1,0],[1,1,0],[0,0.25,0],[0,0.5,0],[0,0.75,0],[1,0.25,0],[1,0.5,0],[1,0.75,0]];outlineConnect=0;fontColor=#232F3E;gradientColor=#945DF2;gradientDirection=north;fillColor=#5A30B5;strokeColor=#ffffff;dashed=0;verticalLabelPosition=bottom;verticalAlign=top;align=center;html=1;fontSize=12;fontStyle=0;aspect=fixed;shape=mxgraph.aws4.resourceIcon;resIcon=mxgraph.aws4.elasticsearch_service;" vertex="1" parent="1">
          <mxGeometry x="1340" y="1130" width="60" height="60" as="geometry" />
        </mxCell>
        <mxCell id="vr4WAeOj3KnGOKqHxN8c-14" value="" style="sketch=0;outlineConnect=0;fontColor=#232F3E;gradientColor=none;fillColor=#D45B07;strokeColor=none;dashed=0;verticalLabelPosition=bottom;verticalAlign=top;align=center;html=1;fontSize=12;fontStyle=0;aspect=fixed;pointerEvents=1;shape=mxgraph.aws4.container_1;" vertex="1" parent="1">
          <mxGeometry x="770" y="810" width="63.48" height="41" as="geometry" />
        </mxCell>
        <mxCell id="vr4WAeOj3KnGOKqHxN8c-67" style="edgeStyle=orthogonalEdgeStyle;rounded=0;orthogonalLoop=1;jettySize=auto;html=1;" edge="1" parent="1" source="vr4WAeOj3KnGOKqHxN8c-15" target="vr4WAeOj3KnGOKqHxN8c-11">
          <mxGeometry relative="1" as="geometry" />
        </mxCell>
        <mxCell id="vr4WAeOj3KnGOKqHxN8c-15" value="" style="sketch=0;outlineConnect=0;fontColor=#232F3E;gradientColor=none;fillColor=#D45B07;strokeColor=none;dashed=0;verticalLabelPosition=bottom;verticalAlign=top;align=center;html=1;fontSize=12;fontStyle=0;aspect=fixed;pointerEvents=1;shape=mxgraph.aws4.container_1;" vertex="1" parent="1">
          <mxGeometry x="910" y="810" width="63.48" height="41" as="geometry" />
        </mxCell>
        <mxCell id="vr4WAeOj3KnGOKqHxN8c-58" style="rounded=0;orthogonalLoop=1;jettySize=auto;html=1;entryX=0;entryY=0.5;entryDx=0;entryDy=0;entryPerimeter=0;" edge="1" parent="1" source="vr4WAeOj3KnGOKqHxN8c-16" target="vr4WAeOj3KnGOKqHxN8c-13">
          <mxGeometry relative="1" as="geometry">
            <Array as="points">
              <mxPoint x="1060" y="1160" />
            </Array>
          </mxGeometry>
        </mxCell>
        <mxCell id="vr4WAeOj3KnGOKqHxN8c-16" value="" style="sketch=0;outlineConnect=0;fontColor=#232F3E;gradientColor=none;fillColor=#D45B07;strokeColor=none;dashed=0;verticalLabelPosition=bottom;verticalAlign=top;align=center;html=1;fontSize=12;fontStyle=0;aspect=fixed;pointerEvents=1;shape=mxgraph.aws4.container_1;" vertex="1" parent="1">
          <mxGeometry x="740" y="900" width="63.48" height="41" as="geometry" />
        </mxCell>
        <mxCell id="vr4WAeOj3KnGOKqHxN8c-63" style="edgeStyle=orthogonalEdgeStyle;rounded=0;orthogonalLoop=1;jettySize=auto;html=1;entryX=0;entryY=0.124;entryDx=0;entryDy=0;entryPerimeter=0;" edge="1" parent="1" source="vr4WAeOj3KnGOKqHxN8c-17" target="vr4WAeOj3KnGOKqHxN8c-19">
          <mxGeometry relative="1" as="geometry" />
        </mxCell>
        <mxCell id="vr4WAeOj3KnGOKqHxN8c-17" value="" style="sketch=0;outlineConnect=0;fontColor=#232F3E;gradientColor=none;fillColor=#D45B07;strokeColor=none;dashed=0;verticalLabelPosition=bottom;verticalAlign=top;align=center;html=1;fontSize=12;fontStyle=0;aspect=fixed;pointerEvents=1;shape=mxgraph.aws4.container_1;" vertex="1" parent="1">
          <mxGeometry x="962.39" y="899.88" width="63.48" height="41" as="geometry" />
        </mxCell>
        <mxCell id="vr4WAeOj3KnGOKqHxN8c-59" style="edgeStyle=orthogonalEdgeStyle;rounded=0;orthogonalLoop=1;jettySize=auto;html=1;entryX=0.111;entryY=0.52;entryDx=0;entryDy=0;entryPerimeter=0;curved=1;" edge="1" parent="1" source="vr4WAeOj3KnGOKqHxN8c-18" target="vr4WAeOj3KnGOKqHxN8c-19">
          <mxGeometry relative="1" as="geometry">
            <Array as="points">
              <mxPoint x="884" y="1040" />
              <mxPoint x="1080" y="1040" />
              <mxPoint x="1080" y="970" />
            </Array>
          </mxGeometry>
        </mxCell>
        <mxCell id="vr4WAeOj3KnGOKqHxN8c-18" value="" style="sketch=0;outlineConnect=0;fontColor=#232F3E;gradientColor=none;fillColor=#D45B07;strokeColor=none;dashed=0;verticalLabelPosition=bottom;verticalAlign=top;align=center;html=1;fontSize=12;fontStyle=0;aspect=fixed;pointerEvents=1;shape=mxgraph.aws4.container_1;" vertex="1" parent="1">
          <mxGeometry x="852.74" y="900" width="63.48" height="41" as="geometry" />
        </mxCell>
        <mxCell id="vr4WAeOj3KnGOKqHxN8c-48" style="edgeStyle=orthogonalEdgeStyle;rounded=0;orthogonalLoop=1;jettySize=auto;html=1;entryX=0;entryY=0.75;entryDx=0;entryDy=0;entryPerimeter=0;" edge="1" parent="1" source="vr4WAeOj3KnGOKqHxN8c-19" target="vr4WAeOj3KnGOKqHxN8c-11">
          <mxGeometry relative="1" as="geometry" />
        </mxCell>
        <mxCell id="vr4WAeOj3KnGOKqHxN8c-50" style="edgeStyle=orthogonalEdgeStyle;rounded=0;orthogonalLoop=1;jettySize=auto;html=1;" edge="1" parent="1" source="vr4WAeOj3KnGOKqHxN8c-19" target="vr4WAeOj3KnGOKqHxN8c-12">
          <mxGeometry relative="1" as="geometry" />
        </mxCell>
        <mxCell id="vr4WAeOj3KnGOKqHxN8c-19" value="Amazon ElastiCache" style="sketch=0;outlineConnect=0;fontColor=#232F3E;gradientColor=none;strokeColor=#ffffff;fillColor=#232F3E;dashed=0;verticalLabelPosition=middle;verticalAlign=bottom;align=center;html=1;whiteSpace=wrap;fontSize=10;fontStyle=1;spacing=3;shape=mxgraph.aws4.productIcon;prIcon=mxgraph.aws4.elasticache;" vertex="1" parent="1">
          <mxGeometry x="1140" y="900.12" width="90" height="125" as="geometry" />
        </mxCell>
        <mxCell id="vr4WAeOj3KnGOKqHxN8c-20" value="" style="sketch=0;points=[[0,0,0],[0.25,0,0],[0.5,0,0],[0.75,0,0],[1,0,0],[0,1,0],[0.25,1,0],[0.5,1,0],[0.75,1,0],[1,1,0],[0,0.25,0],[0,0.5,0],[0,0.75,0],[1,0.25,0],[1,0.5,0],[1,0.75,0]];outlineConnect=0;fontColor=#232F3E;gradientColor=#60A337;gradientDirection=north;fillColor=#277116;strokeColor=#ffffff;dashed=0;verticalLabelPosition=bottom;verticalAlign=top;align=center;html=1;fontSize=12;fontStyle=0;aspect=fixed;shape=mxgraph.aws4.resourceIcon;resIcon=mxgraph.aws4.s3;" vertex="1" parent="1">
          <mxGeometry x="491" y="690" width="78" height="78" as="geometry" />
        </mxCell>
        <mxCell id="vr4WAeOj3KnGOKqHxN8c-37" style="edgeStyle=orthogonalEdgeStyle;rounded=0;orthogonalLoop=1;jettySize=auto;html=1;entryX=1;entryY=0.5;entryDx=0;entryDy=0;entryPerimeter=0;curved=1;" edge="1" parent="1" source="vr4WAeOj3KnGOKqHxN8c-21" target="vr4WAeOj3KnGOKqHxN8c-35">
          <mxGeometry relative="1" as="geometry" />
        </mxCell>
        <mxCell id="vr4WAeOj3KnGOKqHxN8c-93" style="edgeStyle=orthogonalEdgeStyle;rounded=0;orthogonalLoop=1;jettySize=auto;html=1;entryX=0;entryY=0.5;entryDx=0;entryDy=0;entryPerimeter=0;" edge="1" parent="1" source="vr4WAeOj3KnGOKqHxN8c-21" target="vr4WAeOj3KnGOKqHxN8c-25">
          <mxGeometry relative="1" as="geometry" />
        </mxCell>
        <mxCell id="vr4WAeOj3KnGOKqHxN8c-21" value="" style="sketch=0;points=[[0,0,0],[0.25,0,0],[0.5,0,0],[0.75,0,0],[1,0,0],[0,1,0],[0.25,1,0],[0.5,1,0],[0.75,1,0],[1,1,0],[0,0.25,0],[0,0.5,0],[0,0.75,0],[1,0.25,0],[1,0.5,0],[1,0.75,0]];outlineConnect=0;fontColor=#232F3E;gradientColor=#945DF2;gradientDirection=north;fillColor=#5A30B5;strokeColor=#ffffff;dashed=0;verticalLabelPosition=bottom;verticalAlign=top;align=center;html=1;fontSize=12;fontStyle=0;aspect=fixed;shape=mxgraph.aws4.resourceIcon;resIcon=mxgraph.aws4.cloudfront;" vertex="1" parent="1">
          <mxGeometry x="491" y="1050" width="78" height="78" as="geometry" />
        </mxCell>
        <mxCell id="vr4WAeOj3KnGOKqHxN8c-38" style="edgeStyle=orthogonalEdgeStyle;rounded=0;orthogonalLoop=1;jettySize=auto;html=1;exitX=1;exitY=0.5;exitDx=0;exitDy=0;exitPerimeter=0;" edge="1" parent="1" source="vr4WAeOj3KnGOKqHxN8c-22" target="vr4WAeOj3KnGOKqHxN8c-3">
          <mxGeometry relative="1" as="geometry" />
        </mxCell>
        <mxCell id="vr4WAeOj3KnGOKqHxN8c-39" style="edgeStyle=orthogonalEdgeStyle;rounded=0;orthogonalLoop=1;jettySize=auto;html=1;entryX=1;entryY=0.5;entryDx=0;entryDy=0;entryPerimeter=0;curved=1;" edge="1" parent="1" source="vr4WAeOj3KnGOKqHxN8c-22" target="vr4WAeOj3KnGOKqHxN8c-35">
          <mxGeometry relative="1" as="geometry" />
        </mxCell>
        <mxCell id="vr4WAeOj3KnGOKqHxN8c-96" style="edgeStyle=orthogonalEdgeStyle;rounded=0;orthogonalLoop=1;jettySize=auto;html=1;entryX=0;entryY=0.5;entryDx=0;entryDy=0;entryPerimeter=0;" edge="1" parent="1" source="vr4WAeOj3KnGOKqHxN8c-22" target="vr4WAeOj3KnGOKqHxN8c-25">
          <mxGeometry relative="1" as="geometry" />
        </mxCell>
        <mxCell id="vr4WAeOj3KnGOKqHxN8c-22" value="" style="outlineConnect=0;dashed=0;verticalLabelPosition=bottom;verticalAlign=top;align=center;html=1;shape=mxgraph.aws3.application_load_balancer;fillColor=#F58534;gradientColor=none;" vertex="1" parent="1">
          <mxGeometry x="569" y="839" width="69" height="72" as="geometry" />
        </mxCell>
        <mxCell id="vr4WAeOj3KnGOKqHxN8c-24" value="" style="sketch=0;points=[[0,0,0],[0.25,0,0],[0.5,0,0],[0.75,0,0],[1,0,0],[0,1,0],[0.25,1,0],[0.5,1,0],[0.75,1,0],[1,1,0],[0,0.25,0],[0,0.5,0],[0,0.75,0],[1,0.25,0],[1,0.5,0],[1,0.75,0]];outlineConnect=0;fontColor=#232F3E;gradientColor=#4D72F3;gradientDirection=north;fillColor=#3334B9;strokeColor=#ffffff;dashed=0;verticalLabelPosition=bottom;verticalAlign=top;align=center;html=1;fontSize=12;fontStyle=0;aspect=fixed;shape=mxgraph.aws4.resourceIcon;resIcon=mxgraph.aws4.rds;" vertex="1" parent="1">
          <mxGeometry x="1500" y="800.5" width="60" height="60" as="geometry" />
        </mxCell>
        <mxCell id="vr4WAeOj3KnGOKqHxN8c-25" value="" style="sketch=0;points=[[0,0,0],[0.25,0,0],[0.5,0,0],[0.75,0,0],[1,0,0],[0,1,0],[0.25,1,0],[0.5,1,0],[0.75,1,0],[1,1,0],[0,0.25,0],[0,0.5,0],[0,0.75,0],[1,0.25,0],[1,0.5,0],[1,0.75,0]];outlineConnect=0;fontColor=#232F3E;gradientColor=#60A337;gradientDirection=north;fillColor=#277116;strokeColor=#ffffff;dashed=0;verticalLabelPosition=bottom;verticalAlign=top;align=center;html=1;fontSize=12;fontStyle=0;aspect=fixed;shape=mxgraph.aws4.resourceIcon;resIcon=mxgraph.aws4.s3;" vertex="1" parent="1">
          <mxGeometry x="748.48" y="1056.5" width="65" height="65" as="geometry" />
        </mxCell>
        <mxCell id="vr4WAeOj3KnGOKqHxN8c-85" style="edgeStyle=orthogonalEdgeStyle;rounded=0;orthogonalLoop=1;jettySize=auto;html=1;entryX=0;entryY=0.5;entryDx=0;entryDy=0;entryPerimeter=0;" edge="1" parent="1" source="vr4WAeOj3KnGOKqHxN8c-26" target="vr4WAeOj3KnGOKqHxN8c-35">
          <mxGeometry relative="1" as="geometry" />
        </mxCell>
        <mxCell id="vr4WAeOj3KnGOKqHxN8c-26" value="" style="sketch=0;outlineConnect=0;fontColor=#232F3E;gradientColor=none;fillColor=#232F3D;strokeColor=none;dashed=0;verticalLabelPosition=bottom;verticalAlign=top;align=center;html=1;fontSize=12;fontStyle=0;aspect=fixed;pointerEvents=1;shape=mxgraph.aws4.users;" vertex="1" parent="1">
          <mxGeometry x="20" y="881.5" width="78" height="78" as="geometry" />
        </mxCell>
        <mxCell id="vr4WAeOj3KnGOKqHxN8c-77" style="edgeStyle=orthogonalEdgeStyle;rounded=0;orthogonalLoop=1;jettySize=auto;html=1;entryX=0;entryY=0.75;entryDx=0;entryDy=0;entryPerimeter=0;curved=1;" edge="1" parent="1" source="vr4WAeOj3KnGOKqHxN8c-28" target="vr4WAeOj3KnGOKqHxN8c-12">
          <mxGeometry relative="1" as="geometry" />
        </mxCell>
        <mxCell id="vr4WAeOj3KnGOKqHxN8c-98" style="edgeStyle=orthogonalEdgeStyle;rounded=0;orthogonalLoop=1;jettySize=auto;html=1;entryX=1;entryY=0.5;entryDx=0;entryDy=0;entryPerimeter=0;" edge="1" parent="1" source="vr4WAeOj3KnGOKqHxN8c-28" target="vr4WAeOj3KnGOKqHxN8c-25">
          <mxGeometry relative="1" as="geometry" />
        </mxCell>
        <mxCell id="vr4WAeOj3KnGOKqHxN8c-108" style="edgeStyle=orthogonalEdgeStyle;rounded=0;orthogonalLoop=1;jettySize=auto;html=1;entryX=0.5;entryY=0.119;entryDx=0;entryDy=0;entryPerimeter=0;" edge="1" parent="1" source="vr4WAeOj3KnGOKqHxN8c-28" target="vr4WAeOj3KnGOKqHxN8c-80">
          <mxGeometry relative="1" as="geometry" />
        </mxCell>
        <mxCell id="vr4WAeOj3KnGOKqHxN8c-28" value="" style="rounded=1;whiteSpace=wrap;html=1;sketch=1;curveFitting=1;jiggle=2;" vertex="1" parent="1">
          <mxGeometry x="719.99" y="1184.12" width="330" height="120" as="geometry" />
        </mxCell>
        <mxCell id="vr4WAeOj3KnGOKqHxN8c-29" value="" style="outlineConnect=0;dashed=0;verticalLabelPosition=bottom;verticalAlign=top;align=center;html=1;shape=mxgraph.aws3.lambda;fillColor=#F58534;gradientColor=none;" vertex="1" parent="1">
          <mxGeometry x="828.46" y="1210" width="53.02" height="76.5" as="geometry" />
        </mxCell>
        <mxCell id="vr4WAeOj3KnGOKqHxN8c-30" value="" style="sketch=0;points=[[0,0,0],[0.25,0,0],[0.5,0,0],[0.75,0,0],[1,0,0],[0,1,0],[0.25,1,0],[0.5,1,0],[0.75,1,0],[1,1,0],[0,0.25,0],[0,0.5,0],[0,0.75,0],[1,0.25,0],[1,0.5,0],[1,0.75,0]];outlineConnect=0;fontColor=#232F3E;gradientColor=#945DF2;gradientDirection=north;fillColor=#5A30B5;strokeColor=#ffffff;dashed=0;verticalLabelPosition=bottom;verticalAlign=top;align=center;html=1;fontSize=12;fontStyle=0;aspect=fixed;shape=mxgraph.aws4.resourceIcon;resIcon=mxgraph.aws4.api_gateway;" vertex="1" parent="1">
          <mxGeometry x="950" y="1214.12" width="68.25" height="68.25" as="geometry" />
        </mxCell>
        <mxCell id="vr4WAeOj3KnGOKqHxN8c-75" style="edgeStyle=orthogonalEdgeStyle;rounded=0;orthogonalLoop=1;jettySize=auto;html=1;entryX=0.5;entryY=0;entryDx=0;entryDy=0;entryPerimeter=0;" edge="1" parent="1" source="vr4WAeOj3KnGOKqHxN8c-31" target="vr4WAeOj3KnGOKqHxN8c-24">
          <mxGeometry relative="1" as="geometry" />
        </mxCell>
        <mxCell id="vr4WAeOj3KnGOKqHxN8c-31" value="" style="rounded=1;whiteSpace=wrap;html=1;" vertex="1" parent="1">
          <mxGeometry x="714.48" y="580" width="360" height="130" as="geometry" />
        </mxCell>
        <mxCell id="vr4WAeOj3KnGOKqHxN8c-32" value="" style="outlineConnect=0;dashed=0;verticalLabelPosition=bottom;verticalAlign=top;align=center;html=1;shape=mxgraph.aws3.ec2;fillColor=#F58534;gradientColor=none;" vertex="1" parent="1">
          <mxGeometry x="780" y="598.5" width="76.5" height="93" as="geometry" />
        </mxCell>
        <mxCell id="vr4WAeOj3KnGOKqHxN8c-33" value="" style="outlineConnect=0;dashed=0;verticalLabelPosition=bottom;verticalAlign=top;align=center;html=1;shape=mxgraph.aws3.ec2;fillColor=#F58534;gradientColor=none;" vertex="1" parent="1">
          <mxGeometry x="973.48" y="598.5" width="76.5" height="93" as="geometry" />
        </mxCell>
        <mxCell id="vr4WAeOj3KnGOKqHxN8c-34" value="" style="sketch=0;outlineConnect=0;fontColor=#232F3E;gradientColor=none;fillColor=#232F3D;strokeColor=none;dashed=0;verticalLabelPosition=bottom;verticalAlign=top;align=center;html=1;fontSize=12;fontStyle=0;aspect=fixed;pointerEvents=1;shape=mxgraph.aws4.users;" vertex="1" parent="1">
          <mxGeometry x="815.97" y="240" width="78" height="78" as="geometry" />
        </mxCell>
        <mxCell id="vr4WAeOj3KnGOKqHxN8c-35" value="" style="sketch=0;points=[[0,0,0],[0.25,0,0],[0.5,0,0],[0.75,0,0],[1,0,0],[0,1,0],[0.25,1,0],[0.5,1,0],[0.75,1,0],[1,1,0],[0,0.25,0],[0,0.5,0],[0,0.75,0],[1,0.25,0],[1,0.5,0],[1,0.75,0]];outlineConnect=0;fontColor=#232F3E;gradientColor=#945DF2;gradientDirection=north;fillColor=#5A30B5;strokeColor=#ffffff;dashed=0;verticalLabelPosition=bottom;verticalAlign=top;align=center;html=1;fontSize=12;fontStyle=0;aspect=fixed;shape=mxgraph.aws4.resourceIcon;resIcon=mxgraph.aws4.route_53;" vertex="1" parent="1">
          <mxGeometry x="190" y="881.5" width="78" height="78" as="geometry" />
        </mxCell>
        <mxCell id="vr4WAeOj3KnGOKqHxN8c-36" value="" style="endArrow=none;dashed=1;html=1;dashPattern=1 3;strokeWidth=2;rounded=0;entryX=0.5;entryY=1;entryDx=0;entryDy=0;entryPerimeter=0;" edge="1" parent="1" source="vr4WAeOj3KnGOKqHxN8c-21" target="vr4WAeOj3KnGOKqHxN8c-20">
          <mxGeometry width="50" height="50" relative="1" as="geometry">
            <mxPoint x="760" y="880" as="sourcePoint" />
            <mxPoint x="810" y="830" as="targetPoint" />
          </mxGeometry>
        </mxCell>
        <mxCell id="vr4WAeOj3KnGOKqHxN8c-40" value="&lt;font style=&quot;font-size: 15px;&quot;&gt;AWS&lt;br&gt;CloudFront&lt;/font&gt;" style="text;html=1;strokeColor=none;fillColor=none;align=center;verticalAlign=middle;whiteSpace=wrap;rounded=0;" vertex="1" parent="1">
          <mxGeometry x="499" y="1151.75" width="70" height="38.25" as="geometry" />
        </mxCell>
        <mxCell id="vr4WAeOj3KnGOKqHxN8c-41" value="&lt;font style=&quot;font-size: 15px;&quot;&gt;S3 Bucket with static files / frontend&lt;/font&gt;" style="text;html=1;strokeColor=none;fillColor=none;align=center;verticalAlign=middle;whiteSpace=wrap;rounded=0;" vertex="1" parent="1">
          <mxGeometry x="481.5" y="630" width="105" height="54.12" as="geometry" />
        </mxCell>
        <mxCell id="vr4WAeOj3KnGOKqHxN8c-42" value="Application Load Balancer" style="text;html=1;strokeColor=none;fillColor=none;align=center;verticalAlign=middle;whiteSpace=wrap;rounded=0;" vertex="1" parent="1">
          <mxGeometry x="550" y="916.9399999999999" width="105" height="54.12" as="geometry" />
        </mxCell>
        <mxCell id="vr4WAeOj3KnGOKqHxN8c-43" value="&lt;font style=&quot;font-size: 15px;&quot;&gt;admin &lt;br&gt;dashboard&lt;/font&gt;" style="text;html=1;strokeColor=none;fillColor=none;align=center;verticalAlign=middle;whiteSpace=wrap;rounded=0;strokeWidth=7;" vertex="1" parent="1">
          <mxGeometry x="868.48" y="610" width="105" height="54.12" as="geometry" />
        </mxCell>
        <mxCell id="vr4WAeOj3KnGOKqHxN8c-44" value="&lt;span style=&quot;font-size: 15px;&quot;&gt;EC2&lt;/span&gt;" style="text;html=1;strokeColor=none;fillColor=none;align=center;verticalAlign=middle;whiteSpace=wrap;rounded=0;strokeWidth=7;" vertex="1" parent="1">
          <mxGeometry x="690" y="570" width="105" height="54.12" as="geometry" />
        </mxCell>
        <mxCell id="vr4WAeOj3KnGOKqHxN8c-45" value="&lt;span style=&quot;font-size: 15px;&quot;&gt;Lambda API Gateway&lt;/span&gt;" style="text;html=1;strokeColor=none;fillColor=none;align=center;verticalAlign=middle;whiteSpace=wrap;rounded=0;strokeWidth=7;" vertex="1" parent="1">
          <mxGeometry x="719.24" y="1190" width="105" height="54.12" as="geometry" />
        </mxCell>
        <mxCell id="vr4WAeOj3KnGOKqHxN8c-52" value="&lt;span style=&quot;font-size: 15px;&quot;&gt;ECS Fargate&lt;/span&gt;" style="text;html=1;strokeColor=none;fillColor=none;align=center;verticalAlign=middle;whiteSpace=wrap;rounded=0;strokeWidth=7;" vertex="1" parent="1">
          <mxGeometry x="728.48" y="755.88" width="105" height="54.12" as="geometry" />
        </mxCell>
        <mxCell id="vr4WAeOj3KnGOKqHxN8c-53" value="&lt;span style=&quot;font-size: 15px;&quot;&gt;Cart&lt;/span&gt;" style="text;html=1;strokeColor=none;fillColor=none;align=center;verticalAlign=middle;whiteSpace=wrap;rounded=0;strokeWidth=7;" vertex="1" parent="1">
          <mxGeometry x="944.99" y="930" width="105" height="54.12" as="geometry" />
        </mxCell>
        <mxCell id="vr4WAeOj3KnGOKqHxN8c-54" value="&lt;span style=&quot;font-size: 15px;&quot;&gt;Orders&lt;/span&gt;" style="text;html=1;strokeColor=none;fillColor=none;align=center;verticalAlign=middle;whiteSpace=wrap;rounded=0;strokeWidth=7;" vertex="1" parent="1">
          <mxGeometry x="889.24" y="839" width="105" height="54.12" as="geometry" />
        </mxCell>
        <mxCell id="vr4WAeOj3KnGOKqHxN8c-55" value="&lt;span style=&quot;font-size: 15px;&quot;&gt;Products&lt;/span&gt;" style="text;html=1;strokeColor=none;fillColor=none;align=center;verticalAlign=middle;whiteSpace=wrap;rounded=0;strokeWidth=7;" vertex="1" parent="1">
          <mxGeometry x="837.5" y="925.88" width="105" height="54.12" as="geometry" />
        </mxCell>
        <mxCell id="vr4WAeOj3KnGOKqHxN8c-56" value="&lt;span style=&quot;font-size: 15px;&quot;&gt;Users&lt;/span&gt;" style="text;html=1;strokeColor=none;fillColor=none;align=center;verticalAlign=middle;whiteSpace=wrap;rounded=0;strokeWidth=7;" vertex="1" parent="1">
          <mxGeometry x="749.24" y="839" width="105" height="54.12" as="geometry" />
        </mxCell>
        <mxCell id="vr4WAeOj3KnGOKqHxN8c-61" value="&lt;span style=&quot;font-size: 15px;&quot;&gt;Search&lt;/span&gt;" style="text;html=1;strokeColor=none;fillColor=none;align=center;verticalAlign=middle;whiteSpace=wrap;rounded=0;strokeWidth=7;" vertex="1" parent="1">
          <mxGeometry x="719.24" y="925.8800000000001" width="105" height="54.12" as="geometry" />
        </mxCell>
        <mxCell id="vr4WAeOj3KnGOKqHxN8c-64" value="&lt;font style=&quot;font-size: 15px;&quot;&gt;Amazon Elasticsearch&lt;/font&gt;" style="text;html=1;strokeColor=none;fillColor=none;align=center;verticalAlign=middle;whiteSpace=wrap;rounded=0;" vertex="1" parent="1">
          <mxGeometry x="1327.5" y="1200" width="105" height="54.12" as="geometry" />
        </mxCell>
        <mxCell id="vr4WAeOj3KnGOKqHxN8c-65" value="&lt;font style=&quot;font-size: 15px;&quot;&gt;DynamoDB&lt;/font&gt;" style="text;html=1;strokeColor=none;fillColor=none;align=center;verticalAlign=middle;whiteSpace=wrap;rounded=0;" vertex="1" parent="1">
          <mxGeometry x="1317.5" y="1040" width="105" height="54.12" as="geometry" />
        </mxCell>
        <mxCell id="vr4WAeOj3KnGOKqHxN8c-66" value="&lt;span style=&quot;font-size: 15px;&quot;&gt;Product Catalog &amp;amp; Persistent Session Store&lt;/span&gt;" style="text;html=1;strokeColor=none;fillColor=none;align=center;verticalAlign=middle;whiteSpace=wrap;rounded=0;" vertex="1" parent="1">
          <mxGeometry x="1422.5" y="990" width="137.5" height="60" as="geometry" />
        </mxCell>
        <mxCell id="vr4WAeOj3KnGOKqHxN8c-68" value="&lt;font style=&quot;font-size: 15px;&quot;&gt;RDS&lt;/font&gt;" style="text;html=1;strokeColor=none;fillColor=none;align=center;verticalAlign=middle;whiteSpace=wrap;rounded=0;" vertex="1" parent="1">
          <mxGeometry x="1317.5" y="850.9999999999999" width="105" height="54.12" as="geometry" />
        </mxCell>
        <mxCell id="vr4WAeOj3KnGOKqHxN8c-69" value="&lt;font style=&quot;font-size: 15px;&quot;&gt;RDS Replica&lt;/font&gt;" style="text;html=1;strokeColor=none;fillColor=none;align=center;verticalAlign=middle;whiteSpace=wrap;rounded=0;" vertex="1" parent="1">
          <mxGeometry x="1477.5" y="856.8799999999999" width="105" height="54.12" as="geometry" />
        </mxCell>
        <mxCell id="vr4WAeOj3KnGOKqHxN8c-70" value="" style="endArrow=none;dashed=1;html=1;dashPattern=1 3;strokeWidth=2;rounded=0;entryX=1;entryY=0.5;entryDx=0;entryDy=0;entryPerimeter=0;exitX=0;exitY=0.5;exitDx=0;exitDy=0;exitPerimeter=0;" edge="1" parent="1" source="vr4WAeOj3KnGOKqHxN8c-24" target="vr4WAeOj3KnGOKqHxN8c-11">
          <mxGeometry width="50" height="50" relative="1" as="geometry">
            <mxPoint x="830" y="860" as="sourcePoint" />
            <mxPoint x="880" y="810" as="targetPoint" />
          </mxGeometry>
        </mxCell>
        <mxCell id="vr4WAeOj3KnGOKqHxN8c-72" value="" style="endArrow=none;html=1;rounded=0;" edge="1" parent="1" source="vr4WAeOj3KnGOKqHxN8c-14" target="vr4WAeOj3KnGOKqHxN8c-15">
          <mxGeometry width="50" height="50" relative="1" as="geometry">
            <mxPoint x="830" y="860" as="sourcePoint" />
            <mxPoint x="880" y="810" as="targetPoint" />
          </mxGeometry>
        </mxCell>
        <mxCell id="vr4WAeOj3KnGOKqHxN8c-73" value="" style="endArrow=none;dashed=1;html=1;dashPattern=1 3;strokeWidth=2;rounded=0;exitX=0.5;exitY=0;exitDx=0;exitDy=0;entryX=0.5;entryY=0;entryDx=0;entryDy=0;entryPerimeter=0;" edge="1" parent="1" source="vr4WAeOj3KnGOKqHxN8c-65" target="vr4WAeOj3KnGOKqHxN8c-13">
          <mxGeometry width="50" height="50" relative="1" as="geometry">
            <mxPoint x="830" y="860" as="sourcePoint" />
            <mxPoint x="880" y="810" as="targetPoint" />
          </mxGeometry>
        </mxCell>
        <mxCell id="vr4WAeOj3KnGOKqHxN8c-74" value="&lt;font style=&quot;font-size: 15px;&quot;&gt;S3 Bucket&lt;/font&gt;" style="text;html=1;strokeColor=none;fillColor=none;align=center;verticalAlign=middle;whiteSpace=wrap;rounded=0;" vertex="1" parent="1">
          <mxGeometry x="728.48" y="1110" width="105" height="54.12" as="geometry" />
        </mxCell>
        <mxCell id="vr4WAeOj3KnGOKqHxN8c-76" value="&lt;span style=&quot;font-size: 15px;&quot;&gt;Analytics&lt;/span&gt;" style="text;html=1;strokeColor=none;fillColor=none;align=center;verticalAlign=middle;whiteSpace=wrap;rounded=0;strokeWidth=7;" vertex="1" parent="1">
          <mxGeometry x="1340" y="637.38" width="105" height="54.12" as="geometry" />
        </mxCell>
        <mxCell id="vr4WAeOj3KnGOKqHxN8c-78" value="&lt;font style=&quot;font-size: 15px;&quot;&gt;external systems for getting/querying the product&lt;br&gt;list &amp;amp; add to DB&lt;/font&gt;" style="text;html=1;strokeColor=none;fillColor=none;align=center;verticalAlign=middle;whiteSpace=wrap;rounded=0;strokeWidth=7;" vertex="1" parent="1">
          <mxGeometry x="657.5" y="1301.75" width="465" height="54.12" as="geometry" />
        </mxCell>
        <mxCell id="vr4WAeOj3KnGOKqHxN8c-80" value="" style="outlineConnect=0;dashed=0;verticalLabelPosition=bottom;verticalAlign=top;align=center;html=1;shape=mxgraph.aws3.internet;fillColor=#D2D3D3;gradientColor=none;direction=south;" vertex="1" parent="1">
          <mxGeometry x="180" y="1204.37" width="79.5" height="79.5" as="geometry" />
        </mxCell>
        <mxCell id="vr4WAeOj3KnGOKqHxN8c-81" value="&lt;font style=&quot;font-size: 15px;&quot;&gt;Public Internet&lt;/font&gt;" style="text;html=1;strokeColor=none;fillColor=none;align=center;verticalAlign=middle;whiteSpace=wrap;rounded=0;rotation=0;" vertex="1" parent="1">
          <mxGeometry x="60" y="1214.69" width="105" height="54.12" as="geometry" />
        </mxCell>
        <mxCell id="vr4WAeOj3KnGOKqHxN8c-82" value="&lt;font style=&quot;font-size: 15px;&quot;&gt;Route 53&lt;/font&gt;" style="text;html=1;strokeColor=none;fillColor=none;align=center;verticalAlign=middle;whiteSpace=wrap;rounded=0;rotation=0;" vertex="1" parent="1">
          <mxGeometry x="163" y="971.0600000000001" width="105" height="54.12" as="geometry" />
        </mxCell>
        <mxCell id="vr4WAeOj3KnGOKqHxN8c-83" value="&lt;font style=&quot;font-size: 15px;&quot;&gt;www.app.com&lt;/font&gt;" style="text;html=1;strokeColor=none;fillColor=none;align=center;verticalAlign=middle;whiteSpace=wrap;rounded=0;rotation=0;" vertex="1" parent="1">
          <mxGeometry x="290" y="1030" width="105" height="54.12" as="geometry" />
        </mxCell>
        <mxCell id="vr4WAeOj3KnGOKqHxN8c-84" value="&lt;span style=&quot;font-size: 15px;&quot;&gt;app.api.com&lt;/span&gt;" style="text;html=1;strokeColor=none;fillColor=none;align=center;verticalAlign=middle;whiteSpace=wrap;rounded=0;rotation=0;" vertex="1" parent="1">
          <mxGeometry x="550" y="796.88" width="105" height="54.12" as="geometry" />
        </mxCell>
        <mxCell id="vr4WAeOj3KnGOKqHxN8c-86" value="&lt;font style=&quot;font-size: 15px;&quot;&gt;Customers&lt;/font&gt;" style="text;html=1;strokeColor=none;fillColor=none;align=center;verticalAlign=middle;whiteSpace=wrap;rounded=0;rotation=0;" vertex="1" parent="1">
          <mxGeometry x="6.5" y="960" width="105" height="54.12" as="geometry" />
        </mxCell>
        <mxCell id="vr4WAeOj3KnGOKqHxN8c-88" style="edgeStyle=orthogonalEdgeStyle;rounded=0;orthogonalLoop=1;jettySize=auto;html=1;entryX=0.39;entryY=0;entryDx=0;entryDy=0;entryPerimeter=0;" edge="1" parent="1" source="vr4WAeOj3KnGOKqHxN8c-104" target="vr4WAeOj3KnGOKqHxN8c-31">
          <mxGeometry relative="1" as="geometry" />
        </mxCell>
        <mxCell id="vr4WAeOj3KnGOKqHxN8c-107" style="edgeStyle=orthogonalEdgeStyle;rounded=0;orthogonalLoop=1;jettySize=auto;html=1;entryX=0.5;entryY=0;entryDx=0;entryDy=0;entryPerimeter=0;" edge="1" parent="1" source="vr4WAeOj3KnGOKqHxN8c-87" target="vr4WAeOj3KnGOKqHxN8c-104">
          <mxGeometry relative="1" as="geometry" />
        </mxCell>
        <mxCell id="vr4WAeOj3KnGOKqHxN8c-87" value="" style="sketch=0;points=[[0,0,0],[0.25,0,0],[0.5,0,0],[0.75,0,0],[1,0,0],[0,1,0],[0.25,1,0],[0.5,1,0],[0.75,1,0],[1,1,0],[0,0.25,0],[0,0.5,0],[0,0.75,0],[1,0.25,0],[1,0.5,0],[1,0.75,0]];outlineConnect=0;fontColor=#232F3E;gradientColor=#945DF2;gradientDirection=north;fillColor=#5A30B5;strokeColor=#ffffff;dashed=0;verticalLabelPosition=bottom;verticalAlign=top;align=center;html=1;fontSize=12;fontStyle=0;aspect=fixed;shape=mxgraph.aws4.resourceIcon;resIcon=mxgraph.aws4.route_53;" vertex="1" parent="1">
          <mxGeometry x="815.97" y="383.88" width="78" height="78" as="geometry" />
        </mxCell>
        <mxCell id="vr4WAeOj3KnGOKqHxN8c-90" value="&lt;font style=&quot;font-size: 15px;&quot;&gt;Route 53&lt;/font&gt;" style="text;html=1;strokeColor=none;fillColor=none;align=center;verticalAlign=middle;whiteSpace=wrap;rounded=0;rotation=0;" vertex="1" parent="1">
          <mxGeometry x="881.48" y="383.8800000000001" width="105" height="54.12" as="geometry" />
        </mxCell>
        <mxCell id="vr4WAeOj3KnGOKqHxN8c-103" style="edgeStyle=orthogonalEdgeStyle;rounded=0;orthogonalLoop=1;jettySize=auto;html=1;entryX=0.5;entryY=0;entryDx=0;entryDy=0;entryPerimeter=0;" edge="1" parent="1" source="vr4WAeOj3KnGOKqHxN8c-99" target="vr4WAeOj3KnGOKqHxN8c-87">
          <mxGeometry relative="1" as="geometry" />
        </mxCell>
        <mxCell id="vr4WAeOj3KnGOKqHxN8c-99" value="&lt;font style=&quot;font-size: 15px;&quot;&gt;Admin Users&lt;/font&gt;" style="text;html=1;strokeColor=none;fillColor=none;align=center;verticalAlign=middle;whiteSpace=wrap;rounded=0;rotation=0;" vertex="1" parent="1">
          <mxGeometry x="802.47" y="300" width="105" height="54.12" as="geometry" />
        </mxCell>
        <mxCell id="vr4WAeOj3KnGOKqHxN8c-105" value="Application Load Balancer" style="text;html=1;strokeColor=none;fillColor=none;align=center;verticalAlign=middle;whiteSpace=wrap;rounded=0;" vertex="1" parent="1">
          <mxGeometry x="710.97" y="478.93999999999994" width="105" height="54.12" as="geometry" />
        </mxCell>
        <mxCell id="vr4WAeOj3KnGOKqHxN8c-104" value="" style="outlineConnect=0;dashed=0;verticalLabelPosition=bottom;verticalAlign=top;align=center;html=1;shape=mxgraph.aws3.application_load_balancer;fillColor=#F58534;gradientColor=none;" vertex="1" parent="1">
          <mxGeometry x="820.47" y="470" width="69" height="72" as="geometry" />
        </mxCell>
      </root>
    </mxGraphModel>
  </diagram>
</mxfile>
